<?xml version="1.0" encoding="UTF-8" standalone="no"?>
<!-- Created with Inkscape (http://www.inkscape.org/) -->

<svg
   width="32"
   height="32"
   viewBox="0 0 32 32"
   version="1.1"
   id="svg1"
   xmlns="http://www.w3.org/2000/svg"
   xmlns:svg="http://www.w3.org/2000/svg">
  <defs
     id="defs1" />
  <g
     id="layer1">
    <path
       style="color:#81a1c1;font-style:normal;font-variant:normal;font-weight:normal;font-stretch:normal;font-size:medium;line-height:normal;font-family:sans-serif;font-variant-ligatures:normal;font-variant-position:normal;font-variant-caps:normal;font-variant-numeric:normal;font-variant-alternates:normal;font-variant-east-asian:normal;font-feature-settings:normal;font-variation-settings:normal;text-indent:0;text-align:start;text-decoration-line:none;text-decoration-style:solid;text-decoration-color:#81a1c1;letter-spacing:normal;word-spacing:normal;text-transform:none;writing-mode:lr-tb;direction:ltr;text-orientation:mixed;dominant-baseline:auto;baseline-shift:baseline;text-anchor:start;white-space:normal;shape-padding:0;shape-margin:0;inline-size:0;clip-rule:nonzero;display:inline;overflow:visible;visibility:visible;isolation:auto;mix-blend-mode:normal;color-interpolation:sRGB;color-interpolation-filters:linearRGB;solid-color:#81a1c1;solid-opacity:1;vector-effect:none;fill:#81a1c1;fill-opacity:1;fill-rule:nonzero;stroke:none;stroke-linecap:butt;stroke-linejoin:miter;stroke-miterlimit:4;stroke-dasharray:none;stroke-dashoffset:0;stroke-opacity:1;-inkscape-stroke:none;color-rendering:auto;image-rendering:auto;shape-rendering:auto;text-rendering:auto;enable-background:accumulate;stop-color:#81a1c1;stop-opacity:1"
       d="m 16,24.930777 0.350606,0.337915 a 5.3600748,5.3600748 21.971994 0 0 3.71965,1.500721 4.1160909,4.1160909 157.9188 0 0 2.85418,-1.157872 5.2409988,5.2409988 118.40703 0 0 1.501459,-2.776077 l 0.582061,-2.991952 a 28.827758,28.827758 95.504466 0 0 0.530505,-5.505007 l 0,-0.750416 a 4.6757341,4.6757341 66.972002 0 0 -1.430985,-3.366615 l -0.0033,-0.0032 A 4.9130568,4.9130568 21.972002 0 0 20.694711,8.8427045 H 20.209422 A 5.705008,5.705008 158.028 0 0 16.250404,10.440001 L 16,10.681341 l -0.0012,-0.0011 A 6.5629606,6.5629606 21.97199 0 0 11.44443,8.8427045 H 11.088214 A 4.3750224,4.3750224 158.028 0 0 8.0521454,10.06763 5.2261749,5.2261749 112.8935 0 0 6.4615383,13.834317 34.059672,34.059672 84.495533 0 0 7.0883241,20.338421 l 0.4827651,2.481546 a 5.3273251,5.3273251 61.46753 0 0 1.5323653,2.818455 4.0860024,4.0860024 21.709262 0 0 2.8407175,1.130991 5.3243145,5.3243145 158.02801 0 0 3.694833,-1.490708 z m 3.815384,-9.040922 v 2.410004 a 1.5418083,1.5418083 113.02799 0 1 -0.471862,1.11013 1.7237336,1.7237336 158.89128 0 1 -1.20333,0.464537 l -3.676978,-1e-6 a 3.2834946,3.2834946 158.028 0 0 -2.278599,0.919319 v -4.852172 a 1.5615484,1.5615484 113.02801 0 1 0.477904,-1.124344 l 0.01022,-0.0098 a 1.6032086,1.6032086 158.02801 0 1 1.112554,-0.448869 h 4.394346 a 1.6901493,1.6901493 21.972009 0 1 1.172888,0.473211 l 0.02227,0.02146 a 1.4396403,1.4396403 66.972009 0 1 0.440594,1.036567 z M 18.861538,6.0847492 16,10.451511 V 7.7327104 a 3.4619772,3.4619772 108.94446 0 1 0.729775,-2.1261133 l 0.700994,-0.9008255 z"
       id="path1"
       transform="matrix(1.0483871,0,0,1.0877624,-0.77419338,-1.1187612)" />
  </g>
</svg>
