<?xml version="1.0" encoding="UTF-8" standalone="no"?>
<!-- Created with Inkscape (http://www.inkscape.org/) -->

<svg
   width="32"
   height="32"
   viewBox="0 0 32 32"
   version="1.1"
   id="svg1"
   xmlns="http://www.w3.org/2000/svg"
   xmlns:svg="http://www.w3.org/2000/svg">
  <defs
     id="defs1" />
  <g
     id="layer1">
    <path
       style="color:#81a1c1;font-style:normal;font-variant:normal;font-weight:normal;font-stretch:normal;font-size:medium;line-height:normal;font-family:sans-serif;font-variant-ligatures:normal;font-variant-position:normal;font-variant-caps:normal;font-variant-numeric:normal;font-variant-alternates:normal;font-variant-east-asian:normal;font-feature-settings:normal;font-variation-settings:normal;text-indent:0;text-align:start;text-decoration-line:none;text-decoration-style:solid;text-decoration-color:#81a1c1;letter-spacing:normal;word-spacing:normal;text-transform:none;writing-mode:lr-tb;direction:ltr;text-orientation:mixed;dominant-baseline:auto;baseline-shift:baseline;text-anchor:start;white-space:normal;shape-padding:0;shape-margin:0;inline-size:0;clip-rule:nonzero;display:inline;overflow:visible;visibility:visible;isolation:auto;mix-blend-mode:normal;color-interpolation:sRGB;color-interpolation-filters:linearRGB;solid-color:#81a1c1;solid-opacity:1;vector-effect:none;fill:#81a1c1;fill-opacity:1;fill-rule:evenodd;stroke:none;stroke-linecap:butt;stroke-linejoin:miter;stroke-miterlimit:4;stroke-dasharray:none;stroke-dashoffset:0;stroke-opacity:1;-inkscape-stroke:none;color-rendering:auto;image-rendering:auto;shape-rendering:auto;text-rendering:auto;enable-background:accumulate;stop-color:#81a1c1;stop-opacity:1"
       d="m 15.999973,20.1431 0.185545,0.17883 c 0.528653,0.509517 1.234273,0.794204 1.968494,0.794204 0.56382,-0.0011 1.10526,-0.220724 1.510474,-0.612763 0.409527,-0.396436 0.686975,-0.909415 0.794594,-1.469141 l 0.308035,-1.583384 c 0.186735,-0.959869 0.280752,-1.935467 0.280752,-2.913331 v -0.397132 c 0,-0.672087 -0.273383,-1.315263 -0.757299,-1.781661 l -0.0017,-0.0017 c -0.48456,-0.467021 -1.131338,-0.727964 -1.804331,-0.727964 h -0.256822 c -0.781469,0 -1.532497,0.303007 -2.09517,0.845312 l -0.132518,0.127721 -6.35e-4,-5.82e-4 c -0.647284,-0.623862 -1.511251,-0.972443 -2.41024,-0.972451 h -0.188515 c -0.599288,0 -1.175232,0.232369 -1.606731,0.648248 -0.539659,0.522573 -0.843536,1.24218 -0.841773,1.993386 0,1.155335 0.111079,2.307994 0.331705,3.442068 l 0.255486,1.31327 c 0.110637,0.568702 0.393796,1.089514 0.81095,1.491568 0.40477,0.386554 0.943657,0.601104 1.50335,0.598537 0.729322,0 1.430312,-0.282712 1.955359,-0.788904 z m 11.314826,-8.487324 v 7.147047 c 0,1.24189 -0.505159,2.430357 -1.399342,3.292173 -0.966406,0.903738 -2.245583,1.397555 -3.568565,1.377619 l -10.904353,-3e-6 c -2.520401,0 -4.9426211,0.977264 -6.7573554,2.726309 V 11.809443 c 0,-1.257791 0.5116271,-2.4614749 1.41726,-3.3343256 l 0.030308,-0.029063 C 7.0188184,7.5920621 8.201497,7.1149002 9.432114,7.1149002 h 13.031761 c 1.297353,0 2.544106,0.5030971 3.478287,1.4033425 l 0.06604,0.063641 c 0.834986,0.804654 1.306614,1.9144203 1.306614,3.0740173 z M 17.279482,10.607771 15.999973,12.48046 v -1.438829 c 0,-0.407574 0.135902,-0.803512 0.386207,-1.12517 l 0.370977,-0.4767299 z"
       id="path1"
       transform="matrix(1.0483871,0,0,1.0877624,-0.77419338,-1.1187612)" />
  </g>
</svg>
