<?xml version="1.0" encoding="UTF-8" standalone="no"?>
<!-- Created with Inkscape (http://www.inkscape.org/) -->

<svg
   width="32"
   height="32"
   viewBox="0 0 32 32"
   version="1.1"
   id="svg1"
   sodipodi:docname="favicon.svg"
   inkscape:export-filename="favicon-overlap.svg"
   inkscape:export-xdpi="96"
   inkscape:export-ydpi="96"
   inkscape:version="1.4 (e7c3feb100, 2024-10-09)"
   xmlns:inkscape="http://www.inkscape.org/namespaces/inkscape"
   xmlns:sodipodi="http://sodipodi.sourceforge.net/DTD/sodipodi-0.dtd"
   xmlns="http://www.w3.org/2000/svg"
   xmlns:svg="http://www.w3.org/2000/svg">
  <sodipodi:namedview
     id="namedview1"
     pagecolor="#505050"
     bordercolor="#eeeeee"
     borderopacity="1"
     inkscape:showpageshadow="0"
     inkscape:pageopacity="0"
     inkscape:pagecheckerboard="0"
     inkscape:deskcolor="#505050"
     inkscape:zoom="15.29714"
     inkscape:cx="10.099927"
     inkscape:cy="15.558464"
     inkscape:window-width="1323"
     inkscape:window-height="1041"
     inkscape:window-x="8"
     inkscape:window-y="8"
     inkscape:window-maximized="0"
     inkscape:current-layer="svg1" />
  <defs
     id="defs1" />
  <g
     id="layer1">
    <path
       style="color:#81a1c1;font-style:normal;font-variant:normal;font-weight:normal;font-stretch:normal;font-size:medium;line-height:normal;font-family:sans-serif;font-variant-ligatures:normal;font-variant-position:normal;font-variant-caps:normal;font-variant-numeric:normal;font-variant-alternates:normal;font-variant-east-asian:normal;font-feature-settings:normal;font-variation-settings:normal;text-indent:0;text-align:start;text-decoration-line:none;text-decoration-style:solid;text-decoration-color:#81a1c1;letter-spacing:normal;word-spacing:normal;text-transform:none;writing-mode:lr-tb;direction:ltr;text-orientation:mixed;dominant-baseline:auto;baseline-shift:baseline;text-anchor:start;white-space:normal;shape-padding:0;shape-margin:0;inline-size:0;clip-rule:nonzero;display:inline;overflow:visible;visibility:visible;isolation:auto;mix-blend-mode:normal;color-interpolation:sRGB;color-interpolation-filters:linearRGB;solid-color:#81a1c1;solid-opacity:1;vector-effect:none;fill:#81a1c1;fill-opacity:1;fill-rule:evenodd;stroke:none;stroke-width:1.22656;stroke-linecap:butt;stroke-linejoin:miter;stroke-miterlimit:4;stroke-dasharray:none;stroke-dashoffset:0;stroke-opacity:1;-inkscape-stroke:none;color-rendering:auto;image-rendering:auto;shape-rendering:auto;text-rendering:auto;enable-background:accumulate;stop-color:#81a1c1;stop-opacity:1"
       d="m 19.522883,20.639619 0.344841,0.344843 c 0.982514,0.982519 2.293929,1.531487 3.658499,1.531487 1.047874,-0.0021 2.054155,-0.425628 2.807255,-1.181609 0.761118,-0.764459 1.276762,-1.753651 1.476775,-2.832988 l 0.572492,-3.053285 c 0.347052,-1.850942 0.521784,-3.732217 0.521784,-5.617861 V 9.064405 c 0,-1.2960048 -0.508089,-2.536261 -1.40746,-3.4356293 l -0.0031,-0.00333 c -0.900627,-0.900518 -2.10268,-1.403702 -3.353455,-1.403702 h -0.477312 c -1.452382,0 -2.848186,0.5842995 -3.89393,1.6300406 l -0.246288,0.2462873 -0.0011,-0.00112 C 18.318809,4.8939375 16.713104,4.221759 15.042308,4.2217429 h -0.35036 c -1.113792,0 -2.1842,0.4480841 -2.986153,1.2500364 -1.002971,1.0076923 -1.567734,2.3953313 -1.564457,3.8439047 0,2.227866 0.206444,4.450572 0.616482,6.63744 l 0.474828,2.532417 c 0.205621,1.096644 0.731881,2.100941 1.507171,2.876235 0.752276,0.745402 1.753812,1.159125 2.794017,1.154175 1.355464,0 2.658275,-0.545159 3.634088,-1.521266 z m 4.665311,-2.704182 v 6.911855 c 0,1.201022 -0.470852,2.350378 -1.304306,3.183834 -0.900773,0.873998 -2.093074,1.351564 -3.326205,1.332284 l -10.163784,-2e-6 C 7.0446723,29.363408 4.7869574,30.308511 3.095471,32 V 18.084049 c 0,-1.2164 0.4768803,-2.380473 1.3210063,-3.2246 l 0.028255,-0.02811 C 5.2706222,14.005449 6.3729796,13.54399 7.5200191,13.54399 H 19.666727 c 1.209242,0 2.37131,0.486553 3.242059,1.357161 l 0.06155,0.06154 c 0.77829,0.778163 1.217875,1.85142 1.217875,2.972857 z M 21.900886,2.252366 19.522883,5.8635266 v -2.774536 c 0,-0.7859365 0.25258,-1.5494347 0.717777,-2.1696979 L 20.930129,0 Z"
       id="path1"
       sodipodi:nodetypes="cscccsssccssscccsccssccsccsccscsccssssccccsscc" />
  </g>
</svg>
